<?xml version="1.0" encoding="UTF-8"?>
<svg xmlns="http://www.w3.org/2000/svg" xmlns:xlink="http://www.w3.org/1999/xlink" width="840pt" height="839.999992pt" viewBox="0 0 840 839.999992" version="1.2">
<g id="surface1">
<path style=" stroke:none;fill-rule:nonzero;fill:rgb(90.19928%,90.589905%,88.62915%);fill-opacity:1;" d="M 420 7 C 188.054688 7 0 195.054688 0 427 C 0 623.804688 135.519531 788.480469 318.21875 834.050781 C 316.261719 828.378906 315 821.800781 315 813.644531 L 315 741.859375 C 297.953125 741.859375 269.394531 741.859375 262.21875 741.859375 C 233.484375 741.859375 207.933594 729.503906 195.546875 706.546875 C 181.789062 681.03125 179.410156 642.003906 145.320312 618.136719 C 135.203125 610.191406 142.90625 601.125 154.558594 602.351562 C 176.085938 608.441406 193.933594 623.210938 210.734375 645.121094 C 227.464844 667.066406 235.339844 672.035156 266.59375 672.035156 C 281.75 672.035156 304.429688 671.160156 325.78125 667.800781 C 337.261719 638.644531 357.105469 611.800781 381.359375 599.128906 C 241.5 584.746094 174.753906 515.164062 174.753906 420.699219 C 174.753906 380.03125 192.078125 340.691406 221.515625 307.546875 C 211.855469 274.644531 199.710938 207.550781 225.226562 182 C 288.15625 182 326.199219 222.808594 335.335938 233.835938 C 366.695312 223.089844 401.136719 217 437.324219 217 C 473.585938 217 508.164062 223.089844 539.59375 233.90625 C 548.625 222.949219 586.703125 182 649.773438 182 C 675.394531 207.585938 663.109375 274.960938 653.34375 307.789062 C 682.605469 340.863281 699.824219 380.101562 699.824219 420.699219 C 699.824219 515.09375 633.183594 584.640625 493.535156 599.09375 C 531.964844 619.148438 560 675.5 560 717.953125 L 560 813.644531 C 560 817.285156 559.195312 819.910156 558.773438 823.023438 C 722.433594 765.660156 840 610.261719 840 427 C 840 195.054688 651.945312 7 420 7 Z M 420 7 "/>
</g>
</svg>
